<svg width="100" height="100" viewBox="0 0 100 100" fill="none" xmlns="http://www.w3.org/2000/svg">
<g clip-path="url(#clip0)">
<path d="M49.9999 61.6668C58.2847 61.6668 65.0001 54.9514 65.0001 46.6674C65.0001 38.3826 58.2847 31.6672 49.9999 31.6672C41.7159 31.6672 34.9998 38.3826 34.9998 46.6674C35.0104 54.9468 41.7197 61.6569 49.9999 61.6668ZM49.9999 49.3102L47.3571 46.6674H52.6435L49.9999 49.3102ZM51.6669 58.2V52.3574L57.3569 46.6674H61.6668C61.6599 52.4612 57.4019 57.373 51.6669 58.2ZM49.9999 35.0005C55.1528 35.0112 59.69 38.3971 61.1671 43.3333H38.8335C40.3106 38.3971 44.847 35.0112 49.9999 35.0005ZM42.6436 46.6674L48.3336 52.3574V58.2C42.5986 57.373 38.3399 52.4612 38.3338 46.6674H42.6436Z" fill="url(#paint0_linear)"/>
<path d="M53.3333 76.6667H46.6667C45.7466 76.6667 45.0005 77.4129 45.0005 78.3338C45.0005 79.2539 45.7466 80 46.6667 80H53.3333C54.2542 80 55.0003 79.2539 55.0003 78.3338C55.0003 77.4129 54.2542 76.6667 53.3333 76.6667Z" fill="url(#paint1_linear)"/>
<path d="M90.0001 0.00068704C84.5374 -0.0504298 80.0643 4.32961 80.0002 9.79225C80.0002 13.3491 83.9866 18.772 86.6104 21.9588C86.1328 22.2533 85.8398 22.7721 85.8337 23.3337C85.8337 24.2545 86.5798 25.0007 87.4999 25.0007H90.0001C90.2297 25.0015 90.4563 24.9541 90.6669 24.8618C90.7134 24.842 90.7485 24.8 90.7935 24.7756C90.9454 24.7001 91.0842 24.6009 91.2055 24.4819C91.2055 24.4735 91.2254 24.4704 91.2338 24.4621C92.1234 23.487 99.9999 14.7857 99.9999 9.79225C99.9359 4.32961 95.4627 -0.0504298 90.0001 0.00068704ZM90.0001 20.8205C87.03 17.3553 83.3335 12.2352 83.3335 9.79225C83.3335 6.11031 86.3181 3.12569 90.0001 3.12569C93.682 3.12569 96.6667 6.11031 96.6667 9.79225C96.6667 12.2306 92.9687 17.3537 90.0001 20.8205Z" fill="url(#paint2_linear)"/>
<path d="M0.000244141 75.4169C0.000244141 83.1851 12.2889 96.9317 14.4091 99.2502C14.7066 99.7126 15.217 99.9941 15.7671 100H18.2672C19.1873 100 19.9335 99.2541 19.9335 98.3332C19.9266 97.806 19.6664 97.3139 19.2339 97.0118C22.754 93.0071 25.9012 88.6897 28.6371 84.1136C29.3489 85.6936 30.9342 86.6984 32.6669 86.6664H67.3332C69.6334 86.7549 71.5713 84.9658 71.6666 82.6663V53.3337H72.4998C73.4206 53.3337 74.1668 52.5875 74.1668 51.6667C74.1668 50.7466 73.4206 50.0004 72.4998 50.0004H71.6666V25.0005H72.4998C73.4206 25.0005 74.1668 24.2544 74.1668 23.3335C74.1668 22.4134 73.4206 21.6673 72.4998 21.6673H71.6666V17.185C71.5736 14.974 69.712 13.2528 67.5003 13.3337H32.6669C30.3674 13.2452 28.4295 15.0343 28.3334 17.3338V21.6673H27.5003C26.5802 21.6673 25.834 22.4134 25.834 23.3335C25.834 24.2544 26.5802 25.0005 27.5003 25.0005H28.3334V50.0004H27.5003C26.5802 50.0004 25.834 50.7466 25.834 51.6667C25.834 52.5875 26.5802 53.3337 27.5003 53.3337H28.3334V65.9885C25.2969 62.1921 20.6949 59.9873 15.8335 60.0002C7.20846 59.8965 0.126892 66.7919 0.000244141 75.4169H0.000244141ZM67.3332 83.3331H32.6669C32.0802 83.3331 31.6667 82.9867 31.6667 82.6663V73.3333H68.3334V82.6663C68.3334 82.9867 67.9237 83.3331 67.3332 83.3331ZM59.9998 16.667V18.3332C59.9998 19.2541 59.2537 20.0002 58.3336 20.0002H41.6672C40.7464 20.0002 40.0002 19.2541 40.0002 18.3332V16.667H59.9998ZM31.6667 17.3338C31.6667 17.0202 32.0771 16.667 32.6669 16.667H36.667V18.3332C36.667 21.0951 38.9054 23.3335 41.6672 23.3335H58.3336C61.0946 23.3335 63.3339 21.0951 63.3339 18.3332V16.667H67.5003C68 16.667 68.3334 16.9783 68.3334 17.185V70H31.6667V17.3338ZM15.8335 63.3335C22.6182 63.2274 28.2098 68.6321 28.3334 75.4169C28.3334 80.5713 20.202 90.8785 15.8335 95.8414C11.4656 90.8785 3.33351 80.5713 3.33351 75.4169C3.45787 68.6321 9.04867 63.2274 15.8335 63.3335Z" fill="url(#paint3_linear)"/>
<path d="M90.9173 8.61724C90.8319 8.55087 90.7357 8.49975 90.6335 8.46694C90.5389 8.41888 90.4382 8.38531 90.3337 8.367C89.7851 8.26553 89.2213 8.43261 88.8169 8.81713C88.6628 8.97354 88.5438 9.16122 88.4667 9.36721C88.3813 9.5671 88.3363 9.78225 88.334 10.0005C88.337 10.4422 88.5102 10.8656 88.8169 11.1838C89.2938 11.6644 90.014 11.8086 90.6396 11.5492C91.2644 11.2898 91.6711 10.6772 91.6673 10.0005C91.6604 9.55871 91.488 9.13681 91.1836 8.81713C91.1004 8.75 91.0173 8.68362 90.9173 8.61724Z" fill="url(#paint4_linear)"/>
<path d="M20.7452 22.0405C18.9965 22.4258 17.3257 23.1079 15.8067 24.057C15.0246 24.5437 14.7851 25.5729 15.2718 26.3557C15.7586 27.1377 16.7878 27.3773 17.5706 26.8905C18.7676 26.1421 20.0845 25.6042 21.4638 25.3006C22.0467 25.1732 22.5167 24.7444 22.6975 24.176C22.8776 23.6076 22.741 22.9858 22.3374 22.5464C21.9346 22.1061 21.3273 21.9154 20.7452 22.0451V22.0405Z" fill="url(#paint5_linear)"/>
<path d="M13.0821 28.5269C12.7082 28.2904 12.2558 28.2126 11.8248 28.3094C11.3929 28.4071 11.0183 28.6711 10.7818 29.0449C9.82281 30.5586 9.1293 32.2241 8.73028 33.9705C8.52505 34.8677 9.08657 35.7611 9.98455 35.9663C10.8818 36.1708 11.7752 35.6093 11.9804 34.712C12.2947 33.3365 12.8418 32.025 13.5986 30.8333C13.8374 30.4594 13.9167 30.0055 13.8199 29.5729C13.723 29.1395 13.4575 28.7634 13.0821 28.5269Z" fill="url(#paint6_linear)"/>
<path d="M9.98695 39.0556C9.55589 39.154 9.18129 39.4203 8.9463 39.7957C8.71132 40.171 8.63578 40.6242 8.73497 41.0553C9.13475 42.8024 9.83131 44.4671 10.7934 45.9785C11.1069 46.4943 11.6746 46.7994 12.2773 46.7781C12.88 46.7567 13.424 46.4111 13.6994 45.8748C13.9756 45.3384 13.9397 44.6945 13.6071 44.1917C12.8487 43 12.2994 41.687 11.9836 40.3106C11.8851 39.8788 11.6196 39.5042 11.245 39.2692C10.8712 39.0335 10.418 38.9572 9.98695 39.0556Z" fill="url(#paint7_linear)"/>
<path d="M17.5837 48.127C16.8017 47.6417 15.774 47.8828 15.2888 48.6656C14.8036 49.4476 15.0447 50.4753 15.8275 50.9605C17.348 51.9073 19.0204 52.5863 20.7705 52.9686C20.888 52.9945 21.0086 53.0075 21.1291 53.0067C21.9798 53.0067 22.6947 52.3651 22.7855 51.519C22.877 50.6729 22.3155 49.8939 21.4839 49.7123C20.103 49.4102 18.7838 48.8739 17.5837 48.127Z" fill="url(#paint8_linear)"/>
<path d="M47.667 96.667C46.7462 96.667 46 97.4131 46 98.3333C46 99.2541 46.7462 100 47.667 100H52.562C53.4821 100 54.2283 99.2541 54.2283 98.3333C54.2283 97.4131 53.4821 96.667 52.562 96.667H47.667Z" fill="url(#paint9_linear)"/>
<path d="M90.3335 55.5006C89.8635 55.1344 89.2341 55.0474 88.6825 55.2717C88.1309 55.496 87.7402 55.998 87.6586 56.5878C87.5777 57.1775 87.8165 57.7665 88.2865 58.132C89.4858 59.0643 90.5875 60.1164 91.5732 61.2722C91.9608 61.7254 92.5597 61.9375 93.1464 61.8292C93.7324 61.7208 94.2161 61.3081 94.4152 60.7458C94.6143 60.1843 94.4991 59.5586 94.1115 59.1055C92.9778 57.7787 91.7121 56.571 90.3335 55.5006Z" fill="url(#paint10_linear)"/>
<path d="M85.4735 93.7419C84.1483 94.4843 82.7529 95.0931 81.3071 95.5585C80.7059 95.7111 80.2398 96.1856 80.0963 96.7891C79.9537 97.3926 80.1574 98.0258 80.6258 98.4317C81.0943 98.8384 81.7496 98.9513 82.3264 98.7247C83.9873 98.1929 85.5903 97.4948 87.1116 96.6419C87.6456 96.358 87.9836 95.8072 87.9958 95.2037C88.0073 94.5995 87.6914 94.0357 87.1695 93.7313C86.6477 93.4261 86.0022 93.4276 85.4819 93.7351L85.4735 93.7419Z" fill="url(#paint11_linear)"/>
<path d="M84.32 52.0001C82.7071 51.3364 81.0325 50.8336 79.3204 50.5002C78.4163 50.3232 77.5405 50.9114 77.3635 51.8155C77.1865 52.7188 77.7747 53.5947 78.6788 53.7717C80.1726 54.0646 81.6344 54.5049 83.042 55.087C83.892 55.4387 84.867 55.0351 85.2195 54.1844C85.5712 53.3337 85.1676 52.3587 84.3169 52.007L84.32 52.0001Z" fill="url(#paint12_linear)"/>
<path d="M97.8454 71.9885C97.9613 71.9892 98.0765 71.9778 98.1902 71.9534C98.6228 71.8626 99.002 71.6032 99.2438 71.2332C99.4849 70.8624 99.5696 70.4115 99.4788 69.9789C99.1149 68.2653 98.5679 66.596 97.8469 64.9999C97.602 64.4575 97.0855 64.0867 96.4934 64.0272C95.9006 63.9685 95.3216 64.2301 94.9744 64.7131C94.6265 65.1968 94.5632 65.8293 94.8081 66.3717C95.4314 67.7496 95.9029 69.1908 96.215 70.6701C96.3798 71.4392 97.0588 71.9885 97.8454 71.9885Z" fill="url(#paint13_linear)"/>
<path d="M93.1869 86.5819C92.353 87.8484 91.3886 89.0241 90.3098 90.0899C89.8749 90.5057 89.6979 91.1245 89.8467 91.7074C89.9963 92.2903 90.4479 92.748 91.0285 92.9044C91.6099 93.0608 92.2301 92.8914 92.652 92.4619C93.8964 91.2321 95.0088 89.8763 95.9716 88.4153C96.4782 87.6462 96.2653 86.6124 95.4963 86.1059C94.7272 85.6 93.6927 85.8129 93.1869 86.5819Z" fill="url(#paint14_linear)"/>
<path d="M36.2451 96.667C35.325 96.667 34.5789 97.4131 34.5789 98.3333C34.5789 99.2541 35.325 100 36.2451 100H41.1401C42.061 100 42.8072 99.2541 42.8072 98.3333C42.8072 97.4131 42.061 96.667 41.1401 96.667H36.2451Z" fill="url(#paint15_linear)"/>
<path d="M24.824 96.667C23.9031 96.667 23.157 97.4131 23.157 98.3333C23.157 99.2541 23.9031 100 24.824 100H29.719C30.6391 100 31.3853 99.2541 31.3853 98.3333C31.3853 97.4131 30.6391 96.667 29.719 96.667H24.824Z" fill="url(#paint16_linear)"/>
<path d="M98.3953 75.1515C97.9543 75.1164 97.5171 75.2576 97.1807 75.5444C96.8442 75.8305 96.6352 76.2395 96.6001 76.6804C96.4795 78.1888 96.1965 79.6796 95.7547 81.1269C95.487 82.0073 95.9829 82.9381 96.8633 83.2066C97.0212 83.2555 97.1853 83.2806 97.3501 83.2799C98.0825 83.2799 98.7294 82.8007 98.9431 82.1004C99.4542 80.4219 99.7831 78.6938 99.9234 76.9452C99.9959 76.0281 99.3123 75.2255 98.3953 75.1515Z" fill="url(#paint17_linear)"/>
<path d="M59.0889 96.667C58.168 96.667 57.4219 97.4131 57.4219 98.3333C57.4219 99.2541 58.168 100 59.0889 100H63.9839C64.904 100 65.6502 99.2541 65.6502 98.3333C65.6502 97.4131 64.904 96.667 63.9839 96.667H59.0889Z" fill="url(#paint18_linear)"/>
<path d="M74.1668 96.6671H70.51C69.5899 96.6671 68.8438 97.4133 68.8438 98.3334C68.8438 99.2543 69.5899 100 70.51 100H74.1767C74.6169 100 75.0533 99.9882 75.4905 99.9684C76.4091 99.9242 77.1186 99.1444 77.0751 98.2251C77.0156 97.3134 76.245 96.6122 75.3318 96.6381C74.9404 96.6565 74.5521 96.6671 74.1668 96.6671Z" fill="url(#paint19_linear)"/>
<path d="M82.045 21.6675H77.9534C77.0333 21.6675 76.2871 22.4136 76.2871 23.3337C76.2871 24.2546 77.0333 25.0008 77.9534 25.0008H82.045C82.9659 25.0008 83.712 24.2546 83.712 23.3337C83.712 22.4136 82.9659 21.6675 82.045 21.6675Z" fill="url(#paint20_linear)"/>
<path d="M15.8334 83.3332C19.9762 83.3332 23.3339 79.9755 23.3339 75.8335C23.3339 71.6915 19.9762 68.333 15.8334 68.333C11.6914 68.333 8.33374 71.6915 8.33374 75.8335C8.33832 79.9739 11.6937 83.3286 15.8334 83.3332ZM15.8334 71.6671C18.1352 71.6671 20.0006 73.5324 20.0006 75.8335C20.0006 78.1345 18.1352 79.9999 15.8334 79.9999C13.5324 79.9999 11.667 78.1345 11.667 75.8335C11.667 73.5324 13.5324 71.6671 15.8334 71.6671Z" fill="url(#paint21_linear)"/>
</g>
<defs>
<linearGradient id="paint0_linear" x1="49.9999" y1="31.6672" x2="49.9999" y2="61.6668" gradientUnits="userSpaceOnUse">
<stop stop-color="#0CB1D4"/>
<stop offset="1" stop-color="#5D67C0"/>
</linearGradient>
<linearGradient id="paint1_linear" x1="50.0004" y1="76.6667" x2="50.0004" y2="80" gradientUnits="userSpaceOnUse">
<stop stop-color="#0CB1D4"/>
<stop offset="1" stop-color="#5D67C0"/>
</linearGradient>
<linearGradient id="paint2_linear" x1="90.0001" y1="0.000244141" x2="90.0001" y2="25.0007" gradientUnits="userSpaceOnUse">
<stop stop-color="#0CB1D4"/>
<stop offset="1" stop-color="#5D67C0"/>
</linearGradient>
<linearGradient id="paint3_linear" x1="37.0835" y1="13.3306" x2="37.0835" y2="100" gradientUnits="userSpaceOnUse">
<stop stop-color="#0CB1D4"/>
<stop offset="1" stop-color="#5D67C0"/>
</linearGradient>
<linearGradient id="paint4_linear" x1="90.0006" y1="8.33789" x2="90.0006" y2="11.6766" gradientUnits="userSpaceOnUse">
<stop stop-color="#0CB1D4"/>
<stop offset="1" stop-color="#5D67C0"/>
</linearGradient>
<linearGradient id="paint5_linear" x1="18.8976" y1="22.0051" x2="18.8976" y2="27.1426" gradientUnits="userSpaceOnUse">
<stop stop-color="#0CB1D4"/>
<stop offset="1" stop-color="#5D67C0"/>
</linearGradient>
<linearGradient id="paint6_linear" x1="11.2741" y1="28.2688" x2="11.2741" y2="36.0083" gradientUnits="userSpaceOnUse">
<stop stop-color="#0CB1D4"/>
<stop offset="1" stop-color="#5D67C0"/>
</linearGradient>
<linearGradient id="paint7_linear" x1="11.2882" y1="39.0137" x2="11.2882" y2="46.7791" gradientUnits="userSpaceOnUse">
<stop stop-color="#0CB1D4"/>
<stop offset="1" stop-color="#5D67C0"/>
</linearGradient>
<linearGradient id="paint8_linear" x1="18.9168" y1="47.8765" x2="18.9168" y2="53.0067" gradientUnits="userSpaceOnUse">
<stop stop-color="#0CB1D4"/>
<stop offset="1" stop-color="#5D67C0"/>
</linearGradient>
<linearGradient id="paint9_linear" x1="50.1142" y1="96.667" x2="50.1142" y2="100" gradientUnits="userSpaceOnUse">
<stop stop-color="#0CB1D4"/>
<stop offset="1" stop-color="#5D67C0"/>
</linearGradient>
<linearGradient id="paint10_linear" x1="91.0771" y1="55.1489" x2="91.0771" y2="61.857" gradientUnits="userSpaceOnUse">
<stop stop-color="#0CB1D4"/>
<stop offset="1" stop-color="#5D67C0"/>
</linearGradient>
<linearGradient id="paint11_linear" x1="84.0238" y1="93.5034" x2="84.0238" y2="98.8399" gradientUnits="userSpaceOnUse">
<stop stop-color="#0CB1D4"/>
<stop offset="1" stop-color="#5D67C0"/>
</linearGradient>
<linearGradient id="paint12_linear" x1="81.3393" y1="50.4688" x2="81.3393" y2="55.214" gradientUnits="userSpaceOnUse">
<stop stop-color="#0CB1D4"/>
<stop offset="1" stop-color="#5D67C0"/>
</linearGradient>
<linearGradient id="paint13_linear" x1="97.0875" y1="64.019" x2="97.0875" y2="71.9885" gradientUnits="userSpaceOnUse">
<stop stop-color="#0CB1D4"/>
<stop offset="1" stop-color="#5D67C0"/>
</linearGradient>
<linearGradient id="paint14_linear" x1="93.0208" y1="85.8313" x2="93.0208" y2="92.9617" gradientUnits="userSpaceOnUse">
<stop stop-color="#0CB1D4"/>
<stop offset="1" stop-color="#5D67C0"/>
</linearGradient>
<linearGradient id="paint15_linear" x1="38.693" y1="96.667" x2="38.693" y2="100" gradientUnits="userSpaceOnUse">
<stop stop-color="#0CB1D4"/>
<stop offset="1" stop-color="#5D67C0"/>
</linearGradient>
<linearGradient id="paint16_linear" x1="27.2711" y1="96.667" x2="27.2711" y2="100" gradientUnits="userSpaceOnUse">
<stop stop-color="#0CB1D4"/>
<stop offset="1" stop-color="#5D67C0"/>
</linearGradient>
<linearGradient id="paint17_linear" x1="97.8054" y1="75.1462" x2="97.8054" y2="83.2799" gradientUnits="userSpaceOnUse">
<stop stop-color="#0CB1D4"/>
<stop offset="1" stop-color="#5D67C0"/>
</linearGradient>
<linearGradient id="paint18_linear" x1="61.536" y1="96.667" x2="61.536" y2="100" gradientUnits="userSpaceOnUse">
<stop stop-color="#0CB1D4"/>
<stop offset="1" stop-color="#5D67C0"/>
</linearGradient>
<linearGradient id="paint19_linear" x1="72.9604" y1="96.6375" x2="72.9604" y2="100" gradientUnits="userSpaceOnUse">
<stop stop-color="#0CB1D4"/>
<stop offset="1" stop-color="#5D67C0"/>
</linearGradient>
<linearGradient id="paint20_linear" x1="79.9996" y1="21.6675" x2="79.9996" y2="25.0008" gradientUnits="userSpaceOnUse">
<stop stop-color="#0CB1D4"/>
<stop offset="1" stop-color="#5D67C0"/>
</linearGradient>
<linearGradient id="paint21_linear" x1="15.8338" y1="68.333" x2="15.8338" y2="83.3332" gradientUnits="userSpaceOnUse">
<stop stop-color="#0CB1D4"/>
<stop offset="1" stop-color="#5D67C0"/>
</linearGradient>
<clipPath id="clip0">
<rect width="100" height="100" fill="white"/>
</clipPath>
</defs>
</svg>
