<svg width="100" height="100" viewBox="0 0 100 100" fill="none" xmlns="http://www.w3.org/2000/svg">
<path d="M28.125 40.625C27.2609 40.625 26.5625 39.9266 26.5625 39.0625C26.5625 34.7547 23.0578 31.25 18.75 31.25C17.8859 31.25 17.1875 30.5516 17.1875 29.6875C17.1875 28.8234 17.8859 28.125 18.75 28.125C24.7797 28.125 29.6875 33.0328 29.6875 39.0625C29.6875 39.9266 28.9891 40.625 28.125 40.625Z" fill="url(#paint0_linear)"/>
<path d="M18.75 82.3359C17.8859 82.3359 17.1875 81.6375 17.1875 80.7734V29.6875C17.1875 28.8234 17.8859 28.125 18.75 28.125C19.6141 28.125 20.3125 28.8234 20.3125 29.6875V80.7734C20.3125 81.6375 19.6141 82.3359 18.75 82.3359Z" fill="url(#paint1_linear)"/>
<path d="M68.75 71.875H31.25C28.6656 71.875 26.5625 69.7719 26.5625 67.1875V4.6875C26.5625 2.10312 28.6656 0 31.25 0H68.75C71.3344 0 73.4375 2.10312 73.4375 4.6875C73.4375 5.55156 72.7391 6.25 71.875 6.25C71.0109 6.25 70.3125 5.55156 70.3125 4.6875C70.3125 3.825 69.6125 3.125 68.75 3.125H31.25C30.3875 3.125 29.6875 3.825 29.6875 4.6875V67.1875C29.6875 68.05 30.3875 68.75 31.25 68.75H68.75C69.6125 68.75 70.3125 68.05 70.3125 67.1875C70.3125 66.3234 71.0109 65.625 71.875 65.625C72.7391 65.625 73.4375 66.3234 73.4375 67.1875C73.4375 69.7719 71.3344 71.875 68.75 71.875Z" fill="url(#paint2_linear)"/>
<path d="M71.875 29.6875C71.0109 29.6875 70.3125 28.9891 70.3125 28.125V4.6875C70.3125 3.82344 71.0109 3.125 71.875 3.125C72.7391 3.125 73.4375 3.82344 73.4375 4.6875V28.125C73.4375 28.9891 72.7391 29.6875 71.875 29.6875Z" fill="url(#paint3_linear)"/>
<path d="M71.875 57.814C68.4281 57.814 65.625 55.0108 65.625 51.564C65.625 48.1171 68.4281 45.314 71.875 45.314C72.7391 45.314 73.4375 46.0124 73.4375 46.8765C73.4375 47.7405 72.7391 48.439 71.875 48.439C70.1516 48.439 68.75 49.8405 68.75 51.564C68.75 53.2874 70.1516 54.689 71.875 54.689C72.7391 54.689 73.4375 55.3874 73.4375 56.2515C73.4375 57.1155 72.7391 57.814 71.875 57.814Z" fill="url(#paint4_linear)"/>
<path d="M71.875 67.1875C68.4281 67.1875 65.625 64.3844 65.625 60.9375C65.625 57.4906 68.4281 54.6875 71.875 54.6875C72.7391 54.6875 73.4375 55.3859 73.4375 56.25C73.4375 57.1141 72.7391 57.8125 71.875 57.8125C70.1516 57.8125 68.75 59.2141 68.75 60.9375C68.75 62.6609 70.1516 64.0625 71.875 64.0625C72.7391 64.0625 73.4375 64.7609 73.4375 65.625C73.4375 66.4891 72.7391 67.1875 71.875 67.1875Z" fill="url(#paint5_linear)"/>
<path d="M71.875 57.811C71.0109 57.811 70.3125 57.1126 70.3125 56.2485C70.3125 55.3845 71.0109 54.686 71.875 54.686C73.5984 54.686 75 53.2845 75 51.561C75 49.8376 73.5984 48.436 71.875 48.436C71.0109 48.436 70.3125 47.7376 70.3125 46.8735C70.3125 46.0095 71.0109 45.311 71.875 45.311C75.3219 45.311 78.125 48.1142 78.125 51.561C78.125 55.0079 75.3219 57.811 71.875 57.811Z" fill="url(#paint6_linear)"/>
<path d="M71.875 67.1875C71.0109 67.1875 70.3125 66.4891 70.3125 65.625C70.3125 64.7609 71.0109 64.0625 71.875 64.0625C73.5984 64.0625 75 62.6609 75 60.9375C75 59.2141 73.5984 57.8125 71.875 57.8125C71.0109 57.8125 70.3125 57.1141 70.3125 56.25C70.3125 55.3859 71.0109 54.6875 71.875 54.6875C75.3219 54.6875 78.125 57.4906 78.125 60.9375C78.125 64.3844 75.3219 67.1875 71.875 67.1875Z" fill="url(#paint7_linear)"/>
<path d="M71.875 57.8125C71.4688 57.8125 71.0609 57.6406 70.7656 57.3594C70.4828 57.0625 70.3125 56.6562 70.3125 56.25C70.3125 55.8437 70.4828 55.4359 70.7656 55.1406C71.3438 54.5625 72.3906 54.5625 72.9688 55.1406C73.2656 55.4359 73.4375 55.8437 73.4375 56.25C73.4375 56.6562 73.2656 57.0625 72.9844 57.3594C72.6875 57.6406 72.2812 57.8125 71.875 57.8125Z" fill="url(#paint8_linear)"/>
<path d="M71.875 67.1875C71.4516 67.1875 71.0609 67.0156 70.7656 66.7344C70.4828 66.4375 70.3125 66.0312 70.3125 65.625C70.3125 65.2187 70.4828 64.8109 70.7656 64.5156C71.3438 63.9375 72.3906 63.9375 72.9844 64.5156C73.2656 64.8109 73.4375 65.2187 73.4375 65.625C73.4375 66.0312 73.2656 66.4375 72.9844 66.7344C72.6875 67.0297 72.2969 67.1875 71.875 67.1875Z" fill="url(#paint9_linear)"/>
<path d="M71.875 48.439C68.4281 48.439 65.625 45.6358 65.625 42.189C65.625 38.7421 68.4281 35.939 71.875 35.939C72.7391 35.939 73.4375 36.6374 73.4375 37.5015C73.4375 38.3655 72.7391 39.064 71.875 39.064C70.1516 39.064 68.75 40.4655 68.75 42.189C68.75 43.9124 70.1516 45.314 71.875 45.314C72.7391 45.314 73.4375 46.0124 73.4375 46.8765C73.4375 47.7405 72.7391 48.439 71.875 48.439Z" fill="url(#paint10_linear)"/>
<path d="M71.875 39.0625C68.4281 39.0625 65.625 36.2594 65.625 32.8125C65.625 29.3656 68.4281 26.5625 71.875 26.5625C72.7391 26.5625 73.4375 27.2609 73.4375 28.125C73.4375 28.9891 72.7391 29.6875 71.875 29.6875C70.1516 29.6875 68.75 31.0891 68.75 32.8125C68.75 34.5359 70.1516 35.9375 71.875 35.9375C72.7391 35.9375 73.4375 36.6359 73.4375 37.5C73.4375 38.3641 72.7391 39.0625 71.875 39.0625Z" fill="url(#paint11_linear)"/>
<path d="M71.875 48.436C71.0109 48.436 70.3125 47.7376 70.3125 46.8735C70.3125 46.0095 71.0109 45.311 71.875 45.311C73.5984 45.311 75 43.9095 75 42.186C75 40.4626 73.5984 39.061 71.875 39.061C71.0109 39.061 70.3125 38.3626 70.3125 37.4985C70.3125 36.6345 71.0109 35.936 71.875 35.936C75.3219 35.936 78.125 38.7392 78.125 42.186C78.125 45.6329 75.3219 48.436 71.875 48.436Z" fill="url(#paint12_linear)"/>
<path d="M71.875 39.0625C71.0109 39.0625 70.3125 38.3641 70.3125 37.5C70.3125 36.6359 71.0109 35.9375 71.875 35.9375C73.5984 35.9375 75 34.5359 75 32.8125C75 31.0891 73.5984 29.6875 71.875 29.6875C71.0109 29.6875 70.3125 28.9891 70.3125 28.125C70.3125 27.2609 71.0109 26.5625 71.875 26.5625C75.3219 26.5625 78.125 29.3656 78.125 32.8125C78.125 36.2594 75.3219 39.0625 71.875 39.0625Z" fill="url(#paint13_linear)"/>
<path d="M71.875 39.0625C71.4688 39.0625 71.0609 38.8906 70.7656 38.6094C70.4828 38.3125 70.3125 37.9062 70.3125 37.5C70.3125 37.0937 70.4828 36.6859 70.7656 36.3906C71.3438 35.8125 72.3906 35.8125 72.9844 36.3906C73.2656 36.6859 73.4375 37.0937 73.4375 37.5C73.4375 37.9062 73.2656 38.3125 72.9844 38.6094C72.6875 38.8906 72.2812 39.0625 71.875 39.0625Z" fill="url(#paint14_linear)"/>
<path d="M71.875 29.6875C71.4688 29.6875 71.0609 29.5156 70.7656 29.2344C70.4828 28.9375 70.3125 28.5312 70.3125 28.125C70.3125 27.7187 70.4828 27.3109 70.7656 27.0156C71.3438 26.4375 72.3906 26.4375 72.9844 27.0156C73.2656 27.3109 73.4375 27.7187 73.4375 28.125C73.4375 28.5312 73.2656 28.9375 72.9844 29.2344C72.6875 29.5156 72.2812 29.6875 71.875 29.6875Z" fill="url(#paint15_linear)"/>
<path d="M71.875 48.4375C71.4688 48.4375 71.0609 48.2656 70.7656 47.9844C70.4828 47.6875 70.3125 47.2812 70.3125 46.875C70.3125 46.4687 70.4828 46.0609 70.7656 45.7656C71.3438 45.1875 72.3906 45.1875 72.9844 45.7656C73.2656 46.0609 73.4375 46.4687 73.4375 46.875C73.4375 47.2812 73.2656 47.6875 72.9844 47.9844C72.6875 48.2656 72.2812 48.4375 71.875 48.4375Z" fill="url(#paint16_linear)"/>
<path d="M48.4377 92.6642C48.0642 92.6642 47.6892 92.5313 47.3908 92.261C46.7502 91.6845 46.7002 90.6954 47.2783 90.0548L66.0283 69.2657C66.608 68.6235 67.5939 68.5767 68.2345 69.1532C68.8752 69.7298 68.9252 70.7188 68.347 71.3595L49.597 92.1485C49.2892 92.4892 48.8627 92.6642 48.4377 92.6642Z" fill="url(#paint17_linear)"/>
<path d="M51.5625 93.7499C51.3922 93.7499 51.2188 93.7218 51.05 93.6624L15.1125 81.1624C14.2969 80.878 13.8657 79.989 14.15 79.1749C14.4344 78.3593 15.3297 77.9296 16.1376 78.2124L52.075 90.7124C52.8907 90.9968 53.3219 91.8859 53.0375 92.6999C52.8141 93.3452 52.2094 93.7499 51.5625 93.7499Z" fill="url(#paint18_linear)"/>
<path d="M6.24844 99.9998C6.01406 99.9998 5.775 99.9467 5.55156 99.8357C4.77969 99.4498 4.46719 98.5107 4.85313 97.7389L14.2281 78.9889C14.6156 78.217 15.5547 77.9061 16.325 78.2904C17.0969 78.6764 17.4094 79.6154 17.0234 80.3873L7.64844 99.1373C7.37344 99.6842 6.82188 99.9998 6.24844 99.9998Z" fill="url(#paint19_linear)"/>
<path d="M48.4359 99.9998C48.2016 99.9998 47.9625 99.9467 47.7391 99.8358C46.9672 99.4498 46.6547 98.5108 47.0406 97.7389L50.1656 91.4889C50.5531 90.717 51.4891 90.4077 52.2625 90.7905C53.0344 91.1764 53.3469 92.1155 52.961 92.8874L49.8359 99.1373C49.5609 99.6842 49.0094 99.9998 48.4359 99.9998Z" fill="url(#paint20_linear)"/>
<path d="M71.875 68.75C71.0109 68.75 70.3125 68.0516 70.3125 67.1875V65.625C70.3125 64.7609 71.0109 64.0625 71.875 64.0625C72.7391 64.0625 73.4375 64.7609 73.4375 65.625V67.1875C73.4375 68.0516 72.7391 68.75 71.875 68.75Z" fill="url(#paint21_linear)"/>
<path d="M18.7969 92.1875C17.9328 92.1875 17.2266 91.4891 17.2266 90.625C17.2266 89.7609 17.9172 89.0625 18.7797 89.0625H18.7969C19.6594 89.0625 20.3594 89.7609 20.3594 90.625C20.3594 91.4891 19.6594 92.1875 18.7969 92.1875Z" fill="url(#paint22_linear)"/>
<path d="M50 67.1875C47.4156 67.1875 45.3125 65.0844 45.3125 62.5C45.3125 59.9156 47.4156 57.8125 50 57.8125C52.5844 57.8125 54.6875 59.9156 54.6875 62.5C54.6875 65.0844 52.5844 67.1875 50 67.1875ZM50 60.9375C49.1375 60.9375 48.4375 61.6375 48.4375 62.5C48.4375 63.3625 49.1375 64.0625 50 64.0625C50.8625 64.0625 51.5625 63.3625 51.5625 62.5C51.5625 61.6375 50.8625 60.9375 50 60.9375Z" fill="url(#paint23_linear)"/>
<path d="M45.3594 9.375C44.4953 9.375 43.7891 8.67656 43.7891 7.8125C43.7891 6.94844 44.4797 6.25 45.3422 6.25H45.3594C46.2219 6.25 46.9219 6.94844 46.9219 7.8125C46.9219 8.67656 46.2219 9.375 45.3594 9.375Z" fill="url(#paint24_linear)"/>
<path d="M54.6875 9.375H50C49.1359 9.375 48.4375 8.67656 48.4375 7.8125C48.4375 6.94844 49.1359 6.25 50 6.25H54.6875C55.5516 6.25 56.25 6.94844 56.25 7.8125C56.25 8.67656 55.5516 9.375 54.6875 9.375Z" fill="url(#paint25_linear)"/>
<path d="M50 43.7454C43.1078 43.7454 37.5 38.1375 37.5 31.2454C37.5 24.3532 43.1078 18.7454 50 18.7454C56.8922 18.7454 62.5 24.3532 62.5 31.2454C62.5 38.1375 56.8922 43.7454 50 43.7454ZM50 21.8704C44.8297 21.8704 40.625 26.075 40.625 31.2454C40.625 36.4157 44.8297 40.6204 50 40.6204C55.1703 40.6204 59.375 36.4157 59.375 31.2454C59.375 26.075 55.1703 21.8704 50 21.8704Z" fill="url(#paint26_linear)"/>
<path d="M50 50.0015C43.1078 50.0015 37.5 44.3937 37.5 37.5015C37.5 36.6374 38.1984 35.939 39.0625 35.939C39.9266 35.939 40.625 36.6374 40.625 37.5015C40.625 42.6718 44.8297 46.8765 50 46.8765C55.1703 46.8765 59.375 42.6718 59.375 37.5015C59.375 36.6374 60.0734 35.939 60.9375 35.939C61.8016 35.939 62.5 36.6374 62.5 37.5015C62.5 44.3937 56.8922 50.0015 50 50.0015Z" fill="url(#paint27_linear)"/>
<path d="M39.0625 39.0641C38.1984 39.0641 37.5 38.3657 37.5 37.5016V31.2454C37.5 30.3813 38.1984 29.6829 39.0625 29.6829C39.9266 29.6829 40.625 30.3813 40.625 31.2454V37.5016C40.625 38.3657 39.9266 39.0641 39.0625 39.0641Z" fill="url(#paint28_linear)"/>
<path d="M60.9375 39.0641C60.0734 39.0641 59.375 38.3657 59.375 37.5016V31.2454C59.375 30.3813 60.0734 29.6829 60.9375 29.6829C61.8016 29.6829 62.5 30.3813 62.5 31.2454V37.5016C62.5 38.3657 61.8016 39.0641 60.9375 39.0641Z" fill="url(#paint29_linear)"/>
<path d="M54.6875 48.9422C53.8234 48.9422 53.125 48.2438 53.125 47.3797V41.125C53.125 40.2609 53.8234 39.5625 54.6875 39.5625C55.5516 39.5625 56.25 40.2609 56.25 41.125V47.3797C56.25 48.2438 55.5516 48.9422 54.6875 48.9422Z" fill="url(#paint30_linear)"/>
<path d="M45.311 48.9422C44.447 48.9422 43.7485 48.2438 43.7485 47.3797V41.125C43.7485 40.2609 44.447 39.5625 45.311 39.5625C46.1751 39.5625 46.8735 40.2609 46.8735 41.125V47.3797C46.8735 48.2438 46.1751 48.9422 45.311 48.9422Z" fill="url(#paint31_linear)"/>
<path d="M50 35.936C49.1359 35.936 48.4375 35.2376 48.4375 34.3735V28.1235C48.4375 27.2595 49.1359 26.561 50 26.561C50.8641 26.561 51.5625 27.2595 51.5625 28.1235V34.3735C51.5625 35.2376 50.8641 35.936 50 35.936Z" fill="url(#paint32_linear)"/>
<path d="M62.5 50.0015H37.5C36.6359 50.0015 35.9375 49.303 35.9375 48.439C35.9375 47.5749 36.6359 46.8765 37.5 46.8765H62.5C63.3641 46.8765 64.0625 47.5749 64.0625 48.439C64.0625 49.303 63.3641 50.0015 62.5 50.0015Z" fill="url(#paint33_linear)"/>
<path d="M85.9391 25C85.5391 25 85.1391 24.8469 84.8344 24.5422L78.3594 18.0703C78.336 18.0469 78.3157 18.025 78.2938 18C75.9719 15.6032 75.9922 11.7563 78.3579 9.38284C80.3438 7.39846 83.6219 7.06253 85.9391 8.50784C88.261 7.0594 91.5376 7.40159 93.5204 9.38753C95.9079 11.7813 95.9079 15.6735 93.5204 18.0657L87.0438 24.5407C86.7391 24.8469 86.3391 25 85.9391 25ZM80.6454 15.9375L85.9391 21.2282L91.3094 15.8594C92.4813 14.686 92.4813 12.7719 91.3079 11.5953C90.1688 10.4547 88.186 10.4563 87.0438 11.5969C86.5969 12.0453 85.925 12.1797 85.3407 11.936C85.3032 11.9203 85.2657 11.9032 85.2313 11.886C85.0829 11.811 84.9485 11.7141 84.8297 11.5938C83.6922 10.4563 81.711 10.4532 80.5672 11.5922C79.4094 12.7547 79.3969 14.6422 80.5344 15.8219C80.5735 15.8594 80.611 15.8969 80.6454 15.9375Z" fill="url(#paint34_linear)"/>
<path d="M14.0611 24.9999C13.6611 24.9999 13.2611 24.8468 12.9564 24.5421L6.4814 18.0702C6.45796 18.0468 6.43765 18.0249 6.41577 17.9999C4.0939 15.6031 4.11577 11.7562 6.47984 9.3843C8.46577 7.39993 11.7423 7.06399 14.0611 8.5093C16.383 7.06087 19.658 7.40305 21.6423 9.38899C24.0298 11.7827 24.0298 15.6749 21.6423 18.0671L15.1658 24.5421C14.8611 24.8468 14.4611 24.9999 14.0611 24.9999ZM8.76734 15.9374L14.0611 21.2281L19.4314 15.8593C20.6033 14.6859 20.6033 12.7718 19.4298 11.5952C18.2908 10.4546 16.308 10.4562 15.1658 11.5968C14.7189 12.0468 14.047 12.1812 13.4626 11.9374C13.4251 11.9218 13.3876 11.9046 13.3533 11.8874C13.2048 11.8124 13.0705 11.714 12.9517 11.5952C11.8158 10.4577 9.83296 10.4531 8.69077 11.5937C7.5314 12.7562 7.52046 14.6437 8.65796 15.8234C8.69546 15.8593 8.73296 15.8968 8.76734 15.9374Z" fill="url(#paint35_linear)"/>
<defs>
<linearGradient id="paint0_linear" x1="23.4375" y1="28.125" x2="23.4375" y2="40.625" gradientUnits="userSpaceOnUse">
<stop stop-color="#0EB0D5"/>
<stop offset="1" stop-color="#5D67C0"/>
</linearGradient>
<linearGradient id="paint1_linear" x1="18.75" y1="28.125" x2="18.75" y2="82.3359" gradientUnits="userSpaceOnUse">
<stop stop-color="#0EB0D5"/>
<stop offset="1" stop-color="#5D67C0"/>
</linearGradient>
<linearGradient id="paint2_linear" x1="50" y1="0" x2="50" y2="71.875" gradientUnits="userSpaceOnUse">
<stop stop-color="#0EB0D5"/>
<stop offset="1" stop-color="#5D67C0"/>
</linearGradient>
<linearGradient id="paint3_linear" x1="71.875" y1="3.125" x2="71.875" y2="29.6875" gradientUnits="userSpaceOnUse">
<stop stop-color="#0EB0D5"/>
<stop offset="1" stop-color="#5D67C0"/>
</linearGradient>
<linearGradient id="paint4_linear" x1="69.5312" y1="45.314" x2="69.5312" y2="57.814" gradientUnits="userSpaceOnUse">
<stop stop-color="#0EB0D5"/>
<stop offset="1" stop-color="#5D67C0"/>
</linearGradient>
<linearGradient id="paint5_linear" x1="69.5312" y1="54.6875" x2="69.5312" y2="67.1875" gradientUnits="userSpaceOnUse">
<stop stop-color="#0EB0D5"/>
<stop offset="1" stop-color="#5D67C0"/>
</linearGradient>
<linearGradient id="paint6_linear" x1="74.2188" y1="45.311" x2="74.2188" y2="57.811" gradientUnits="userSpaceOnUse">
<stop stop-color="#0EB0D5"/>
<stop offset="1" stop-color="#5D67C0"/>
</linearGradient>
<linearGradient id="paint7_linear" x1="74.2188" y1="54.6875" x2="74.2188" y2="67.1875" gradientUnits="userSpaceOnUse">
<stop stop-color="#0EB0D5"/>
<stop offset="1" stop-color="#5D67C0"/>
</linearGradient>
<linearGradient id="paint8_linear" x1="71.875" y1="54.707" x2="71.875" y2="57.8125" gradientUnits="userSpaceOnUse">
<stop stop-color="#0EB0D5"/>
<stop offset="1" stop-color="#5D67C0"/>
</linearGradient>
<linearGradient id="paint9_linear" x1="71.875" y1="64.082" x2="71.875" y2="67.1875" gradientUnits="userSpaceOnUse">
<stop stop-color="#0EB0D5"/>
<stop offset="1" stop-color="#5D67C0"/>
</linearGradient>
<linearGradient id="paint10_linear" x1="69.5312" y1="35.939" x2="69.5312" y2="48.439" gradientUnits="userSpaceOnUse">
<stop stop-color="#0EB0D5"/>
<stop offset="1" stop-color="#5D67C0"/>
</linearGradient>
<linearGradient id="paint11_linear" x1="69.5312" y1="26.5625" x2="69.5312" y2="39.0625" gradientUnits="userSpaceOnUse">
<stop stop-color="#0EB0D5"/>
<stop offset="1" stop-color="#5D67C0"/>
</linearGradient>
<linearGradient id="paint12_linear" x1="74.2188" y1="35.936" x2="74.2188" y2="48.436" gradientUnits="userSpaceOnUse">
<stop stop-color="#0EB0D5"/>
<stop offset="1" stop-color="#5D67C0"/>
</linearGradient>
<linearGradient id="paint13_linear" x1="74.2188" y1="26.5625" x2="74.2188" y2="39.0625" gradientUnits="userSpaceOnUse">
<stop stop-color="#0EB0D5"/>
<stop offset="1" stop-color="#5D67C0"/>
</linearGradient>
<linearGradient id="paint14_linear" x1="71.875" y1="35.957" x2="71.875" y2="39.0625" gradientUnits="userSpaceOnUse">
<stop stop-color="#0EB0D5"/>
<stop offset="1" stop-color="#5D67C0"/>
</linearGradient>
<linearGradient id="paint15_linear" x1="71.875" y1="26.582" x2="71.875" y2="29.6875" gradientUnits="userSpaceOnUse">
<stop stop-color="#0EB0D5"/>
<stop offset="1" stop-color="#5D67C0"/>
</linearGradient>
<linearGradient id="paint16_linear" x1="71.875" y1="45.332" x2="71.875" y2="48.4375" gradientUnits="userSpaceOnUse">
<stop stop-color="#0EB0D5"/>
<stop offset="1" stop-color="#5D67C0"/>
</linearGradient>
<linearGradient id="paint17_linear" x1="57.8127" y1="68.7505" x2="57.8127" y2="92.6642" gradientUnits="userSpaceOnUse">
<stop stop-color="#0EB0D5"/>
<stop offset="1" stop-color="#5D67C0"/>
</linearGradient>
<linearGradient id="paint18_linear" x1="33.5938" y1="78.1255" x2="33.5938" y2="93.7499" gradientUnits="userSpaceOnUse">
<stop stop-color="#0EB0D5"/>
<stop offset="1" stop-color="#5D67C0"/>
</linearGradient>
<linearGradient id="paint19_linear" x1="10.9383" y1="78.1257" x2="10.9383" y2="99.9998" gradientUnits="userSpaceOnUse">
<stop stop-color="#0EB0D5"/>
<stop offset="1" stop-color="#5D67C0"/>
</linearGradient>
<linearGradient id="paint20_linear" x1="50.0008" y1="90.6265" x2="50.0008" y2="99.9998" gradientUnits="userSpaceOnUse">
<stop stop-color="#0EB0D5"/>
<stop offset="1" stop-color="#5D67C0"/>
</linearGradient>
<linearGradient id="paint21_linear" x1="71.875" y1="64.0625" x2="71.875" y2="68.75" gradientUnits="userSpaceOnUse">
<stop stop-color="#0EB0D5"/>
<stop offset="1" stop-color="#5D67C0"/>
</linearGradient>
<linearGradient id="paint22_linear" x1="18.793" y1="89.0625" x2="18.793" y2="92.1875" gradientUnits="userSpaceOnUse">
<stop stop-color="#0EB0D5"/>
<stop offset="1" stop-color="#5D67C0"/>
</linearGradient>
<linearGradient id="paint23_linear" x1="50" y1="57.8125" x2="50" y2="67.1875" gradientUnits="userSpaceOnUse">
<stop stop-color="#0EB0D5"/>
<stop offset="1" stop-color="#5D67C0"/>
</linearGradient>
<linearGradient id="paint24_linear" x1="45.3555" y1="6.25" x2="45.3555" y2="9.375" gradientUnits="userSpaceOnUse">
<stop stop-color="#0EB0D5"/>
<stop offset="1" stop-color="#5D67C0"/>
</linearGradient>
<linearGradient id="paint25_linear" x1="52.3438" y1="6.25" x2="52.3438" y2="9.375" gradientUnits="userSpaceOnUse">
<stop stop-color="#0EB0D5"/>
<stop offset="1" stop-color="#5D67C0"/>
</linearGradient>
<linearGradient id="paint26_linear" x1="50" y1="18.7454" x2="50" y2="43.7454" gradientUnits="userSpaceOnUse">
<stop stop-color="#0EB0D5"/>
<stop offset="1" stop-color="#5D67C0"/>
</linearGradient>
<linearGradient id="paint27_linear" x1="50" y1="35.939" x2="50" y2="50.0015" gradientUnits="userSpaceOnUse">
<stop stop-color="#0EB0D5"/>
<stop offset="1" stop-color="#5D67C0"/>
</linearGradient>
<linearGradient id="paint28_linear" x1="39.0625" y1="29.6829" x2="39.0625" y2="39.0641" gradientUnits="userSpaceOnUse">
<stop stop-color="#0EB0D5"/>
<stop offset="1" stop-color="#5D67C0"/>
</linearGradient>
<linearGradient id="paint29_linear" x1="60.9375" y1="29.6829" x2="60.9375" y2="39.0641" gradientUnits="userSpaceOnUse">
<stop stop-color="#0EB0D5"/>
<stop offset="1" stop-color="#5D67C0"/>
</linearGradient>
<linearGradient id="paint30_linear" x1="54.6875" y1="39.5625" x2="54.6875" y2="48.9422" gradientUnits="userSpaceOnUse">
<stop stop-color="#0EB0D5"/>
<stop offset="1" stop-color="#5D67C0"/>
</linearGradient>
<linearGradient id="paint31_linear" x1="45.311" y1="39.5625" x2="45.311" y2="48.9422" gradientUnits="userSpaceOnUse">
<stop stop-color="#0EB0D5"/>
<stop offset="1" stop-color="#5D67C0"/>
</linearGradient>
<linearGradient id="paint32_linear" x1="50" y1="26.561" x2="50" y2="35.936" gradientUnits="userSpaceOnUse">
<stop stop-color="#0EB0D5"/>
<stop offset="1" stop-color="#5D67C0"/>
</linearGradient>
<linearGradient id="paint33_linear" x1="50" y1="46.8765" x2="50" y2="50.0015" gradientUnits="userSpaceOnUse">
<stop stop-color="#0EB0D5"/>
<stop offset="1" stop-color="#5D67C0"/>
</linearGradient>
<linearGradient id="paint34_linear" x1="85.9394" y1="7.61914" x2="85.9394" y2="25" gradientUnits="userSpaceOnUse">
<stop stop-color="#0EB0D5"/>
<stop offset="1" stop-color="#5D67C0"/>
</linearGradient>
<linearGradient id="paint35_linear" x1="14.0617" y1="7.62061" x2="14.0617" y2="24.9999" gradientUnits="userSpaceOnUse">
<stop stop-color="#0EB0D5"/>
<stop offset="1" stop-color="#5D67C0"/>
</linearGradient>
</defs>
</svg>
