<svg width="100" height="100" viewBox="0 0 100 100" fill="none" xmlns="http://www.w3.org/2000/svg">
<path d="M71.5374 21.3335H28.462C27.653 21.3335 26.9973 21.9892 26.9973 22.7981C26.9973 23.6071 27.6532 24.2628 28.462 24.2628H71.5374C72.3464 24.2628 73.0021 23.6071 73.0021 22.7981C73.0021 21.9892 72.3464 21.3335 71.5374 21.3335Z" fill="url(#paint0_linear)"/>
<path d="M71.5374 28.9355H28.462C27.653 28.9355 26.9973 29.5912 26.9973 30.4002C26.9973 31.2092 27.6532 31.8648 28.462 31.8648H71.5374C72.3464 31.8648 73.0021 31.2092 73.0021 30.4002C73.0021 29.5912 72.3464 28.9355 71.5374 28.9355Z" fill="url(#paint1_linear)"/>
<path d="M48.6735 36.5369H28.462C27.653 36.5369 26.9973 37.1925 26.9973 38.0015C26.9973 38.8107 27.6532 39.4662 28.462 39.4662H48.6733C49.4821 39.4662 50.138 38.8105 50.138 38.0015C50.1382 37.1923 49.4823 36.5369 48.6735 36.5369Z" fill="url(#paint2_linear)"/>
<path d="M95.0348 28.6741L86.6455 22.962V20.8086C86.6455 15.5807 82.3922 11.3274 77.1642 11.3274H69.5576L55.3642 1.66407C52.1056 -0.554689 47.8944 -0.554689 44.6356 1.66407L30.4547 11.3192L30.4604 11.3276H22.8356C17.6077 11.3276 13.3543 15.5809 13.3543 20.8088V22.962L4.96505 28.6739C2.69258 30.221 1.33594 32.7862 1.33594 35.5354V93.7769C1.33594 95.8051 2.15371 99.9998 7.5588 99.9998H92.441C95.8725 99.9998 98.6639 97.2082 98.6639 93.7769V35.5354C98.6641 32.7862 97.307 30.2212 95.0348 28.6741ZM46.2843 4.08516C48.5417 2.54883 51.4587 2.54883 53.7155 4.08516L64.3529 11.3276H35.6473L46.2843 4.08516ZM16.2838 20.809C16.2838 17.1961 19.2229 14.2571 22.8356 14.2571H77.164C80.7767 14.2571 83.7158 17.1961 83.7158 20.8088V31.8928C83.7158 32.702 84.3717 33.3575 85.1804 33.3575C85.9892 33.3575 86.6451 32.7018 86.6451 31.8928V26.5061C86.6451 26.5061 93.8811 31.4672 94.1006 31.6798L57.7976 53.6517C52.988 56.5558 47.012 56.5562 42.2099 53.6562L16.2838 37.7845V20.809ZM13.3545 26.5057V35.9907L6.06251 31.5268C6.23575 31.3727 13.3545 26.5057 13.3545 26.5057ZM7.38419 97.0619L12.5785 91.0974C13.1098 90.4873 13.0461 89.5623 12.436 89.0308C11.826 88.4996 10.9008 88.5637 10.3694 89.1734L4.79923 95.5691C4.4627 95.0527 4.26504 94.4379 4.26504 93.7767V35.5354C4.26504 35.0081 4.34395 34.4919 4.49083 33.9995L39.6667 55.5339L14.7553 84.1377C14.2241 84.7478 14.2877 85.6728 14.8979 86.2043C15.1754 86.4459 16.1325 86.8418 16.9645 86.0617L42.2673 57.0085C44.7167 58.1759 47.3577 58.7605 49.9997 58.7605C52.6747 58.7605 55.3497 58.1597 57.8255 56.9626L92.6607 97.0598C92.5877 97.0645 7.4424 97.065 7.38419 97.0619ZM95.7346 93.7769C95.7346 94.425 95.5437 95.0279 95.2193 95.5381L60.4234 55.4864L95.5695 34.2147C95.6777 34.6417 95.7348 35.0844 95.7348 35.5354V93.7769H95.7346Z" fill="url(#paint3_linear)"/>
<defs>
<linearGradient id="paint0_linear" x1="49.9997" y1="21.3335" x2="49.9997" y2="24.2628" gradientUnits="userSpaceOnUse">
<stop stop-color="#0BB1D3"/>
<stop offset="1" stop-color="#5D67C0"/>
</linearGradient>
<linearGradient id="paint1_linear" x1="49.9997" y1="28.9355" x2="49.9997" y2="31.8648" gradientUnits="userSpaceOnUse">
<stop stop-color="#0BB1D3"/>
<stop offset="1" stop-color="#5D67C0"/>
</linearGradient>
<linearGradient id="paint2_linear" x1="38.5677" y1="36.5369" x2="38.5677" y2="39.4662" gradientUnits="userSpaceOnUse">
<stop stop-color="#0BB1D3"/>
<stop offset="1" stop-color="#5D67C0"/>
</linearGradient>
<linearGradient id="paint3_linear" x1="49.9999" y1="0" x2="49.9999" y2="99.9998" gradientUnits="userSpaceOnUse">
<stop stop-color="#0BB1D3"/>
<stop offset="1" stop-color="#5D67C0"/>
</linearGradient>
</defs>
</svg>
