<svg width="24" height="24" viewBox="0 0 24 24" fill="none" xmlns="http://www.w3.org/2000/svg">
<path d="M15.0612 0H13.4286H13.0204H6.4898H6.08163H4.44898C3.09837 0 2 1.0764 2 2.4V21.6C2 22.9236 3.09837 24 4.44898 24H15.0612C16.4118 24 17.5102 22.9236 17.5102 21.6V12.1656L21.5424 8.214C21.8376 7.9248 22 7.5404 22 7.1316C22 6.2868 21.2988 5.6 20.4376 5.6C20.02 5.6 19.6278 5.7592 19.3327 6.0488L17.5102 7.8344V2.4C17.5102 1.0764 16.4118 0 15.0612 0ZM13.4286 0.8H15.0612C15.9616 0.8 16.6939 1.5176 16.6939 2.4V8.6344L15.8776 9.4344V2.8C15.8776 2.1384 15.3282 1.6 14.6531 1.6H12.5371C12.5829 1.4744 12.6122 1.3408 12.6122 1.2C12.6122 0.9796 12.7951 0.8 13.0204 0.8H13.4286ZM9.34694 18.4H10.9796C11.0882 18.4 11.1918 18.358 11.2682 18.2828L15.0612 14.5656V21.2C15.0612 21.4204 14.8784 21.6 14.6531 21.6H4.85714C4.63184 21.6 4.44898 21.4204 4.44898 21.2V2.8C4.44898 2.5796 4.63184 2.4 4.85714 2.4H8.12245H11.3878H14.6531C14.8784 2.4 15.0612 2.5796 15.0612 2.8V10.2344L9.05837 16.1172C8.98163 16.192 8.93878 16.294 8.93878 16.4V18C8.93878 18.2208 9.12122 18.4 9.34694 18.4ZM7.71429 1.2C7.71429 1.0592 7.6849 0.9256 7.63918 0.8H11.8714C11.8253 0.9256 11.7959 1.0592 11.7959 1.2C11.7959 1.4204 11.6131 1.6 11.3878 1.6H8.12245C7.89714 1.6 7.71429 1.4204 7.71429 1.2ZM16.6939 21.6C16.6939 22.4824 15.9616 23.2 15.0612 23.2H4.44898C3.54857 23.2 2.81633 22.4824 2.81633 21.6V2.4C2.81633 1.5176 3.54857 0.8 4.44898 0.8H6.08163H6.4898C6.7151 0.8 6.89796 0.9796 6.89796 1.2C6.89796 1.3408 6.92735 1.4744 6.97306 1.6H4.85714C4.18204 1.6 3.63265 2.1384 3.63265 2.8V21.2C3.63265 21.8616 4.18204 22.4 4.85714 22.4H14.6531C15.3282 22.4 15.8776 21.8616 15.8776 21.2V13.7656L16.6939 12.9656V21.6ZM19.9098 6.6144C20.049 6.478 20.2408 6.4 20.4376 6.4C20.849 6.4 21.1837 6.728 21.1837 7.1316C21.1837 7.3268 21.1061 7.5108 20.9653 7.6488L10.8106 17.6H9.7551V16.5656L19.9098 6.6144Z" fill="#A0A0A0"/>
<path d="M10 14.8V14H5.45455C5.20318 14 5 14.1792 5 14.4V19.6C5 19.8208 5.20318 20 5.45455 20H14.5455C14.7968 20 15 19.8208 15 19.6V17.6H14.0909V19.2H5.90909V14.8H10Z" fill="#A0A0A0"/>
<path d="M5.90909 3L5 3L5 3.75L5.45454 3.75L5.45454 4.5C5.45454 6.44137 7.25182 8.04225 9.54545 8.23087L9.54545 9L10.4545 9L10.4545 8.23087C12.7482 8.04225 14.5455 6.441 14.5455 4.5L14.5455 3.75L15 3.75L15 3L14.0909 3L5.90909 3ZM13.6364 4.5C13.6364 6.15413 12.005 7.5 10 7.5C7.995 7.5 6.36364 6.15412 6.36364 4.5L6.36364 3.75L13.6364 3.75L13.6364 4.5Z" fill="#A0A0A0"/>
<path d="M5 10H13V11H5V10Z" fill="#A0A0A0"/>
</svg>
