<svg width="100" height="100" viewBox="0 0 100 100" fill="none" xmlns="http://www.w3.org/2000/svg">
<path d="M85 0H15C6.71954 0.00918522 0.00918522 6.71954 0 15V85C0.00918522 93.2805 6.71954 99.9908 15 100H85C93.2805 99.9908 99.9908 93.2805 100 85V15C99.9908 6.71954 93.2805 0.00918522 85 0ZM96.6667 85C96.6593 91.4403 91.4403 96.6593 85 96.6667H15C8.55972 96.6593 3.34068 91.4403 3.33333 85V15C3.34068 8.55972 8.55972 3.34068 15 3.33333H85C91.4403 3.34068 96.6593 8.55972 96.6667 15V85Z" fill="url(#paint0_linear)"/>
<path d="M85.0001 6.66663H15.0001C10.4 6.67214 6.67226 10.3999 6.66675 15V85C6.67226 89.6001 10.4 93.3278 15.0001 93.3333H85.0001C89.6002 93.3278 93.3279 89.6001 93.3334 85V15C93.3279 10.3999 89.6002 6.67214 85.0001 6.66663ZM90.0001 85C90.0001 87.7614 87.7615 90 85.0001 90H15.0001C12.2387 90 10.0001 87.7614 10.0001 85V15C10.0001 12.2385 12.2387 9.99996 15.0001 9.99996H85.0001C87.7615 9.99996 90.0001 12.2385 90.0001 15V85Z" fill="url(#paint1_linear)"/>
<path d="M81.6667 55H73.3333V46.6667C73.3333 44.8258 71.841 43.3334 70 43.3334H63.3333C61.4924 43.3334 60 44.8258 60 46.6667V55H56.945C54.4118 52.6537 51.4193 50.8586 48.1567 49.7284C55.7789 45.9413 59.7924 37.4063 57.8474 29.1203C55.9023 20.8343 48.5104 14.9766 39.9992 14.9766C31.4879 14.9766 24.096 20.8343 22.151 29.1203C20.2059 37.4063 24.2194 45.9413 31.8417 49.7284C21.777 53.2116 15.0193 62.683 15 73.3334V80C15 82.7615 17.2386 85 20 85H60C62.7614 85 65 82.7615 65 80H70C71.841 80 73.3333 78.5077 73.3333 76.6667V68.3334H81.6667C83.5076 68.3334 85 66.841 85 65V58.3334C85 56.4924 83.5076 55 81.6667 55ZM25 33.3334C25 25.0491 31.7157 18.3334 40 18.3334C48.2843 18.3334 55 25.0491 55 33.3334C55 41.6176 48.2843 48.3334 40 48.3334C31.7195 48.3242 25.0092 41.6138 25 33.3334ZM60 81.6667H20C19.0795 81.6667 18.3333 80.9205 18.3333 80V73.3334C18.323 65.4428 22.6086 58.1722 29.5171 54.3598C36.4255 50.5475 44.8615 50.7979 51.5317 55.0134C49.7488 55.0856 48.339 56.549 48.3333 58.3334V65C48.3333 66.841 49.8257 68.3334 51.6667 68.3334H60V76.6667C60.0036 77.8522 60.6388 78.946 61.6667 79.5367V80C61.6667 80.9205 60.9205 81.6667 60 81.6667ZM81.6667 65H73.3333C71.4924 65 70 66.4924 70 68.3334V76.6667H63.3333V68.3334C63.3333 66.4924 61.841 65 60 65H51.6667V58.3334H60C61.841 58.3334 63.3333 56.841 63.3333 55V46.6667H70V55C70 56.841 71.4924 58.3334 73.3333 58.3334H81.6667V65Z" fill="url(#paint2_linear)"/>
<defs>
<linearGradient id="paint0_linear" x1="50" y1="0" x2="50" y2="100" gradientUnits="userSpaceOnUse">
<stop stop-color="#0BB1D3"/>
<stop offset="1" stop-color="#5D67C0"/>
</linearGradient>
<linearGradient id="paint1_linear" x1="50.0001" y1="6.66663" x2="50.0001" y2="93.3333" gradientUnits="userSpaceOnUse">
<stop stop-color="#0BB1D3"/>
<stop offset="1" stop-color="#5D67C0"/>
</linearGradient>
<linearGradient id="paint2_linear" x1="50" y1="14.9766" x2="50" y2="85" gradientUnits="userSpaceOnUse">
<stop stop-color="#0BB1D3"/>
<stop offset="1" stop-color="#5D67C0"/>
</linearGradient>
</defs>
</svg>
