<svg width="100" height="100" viewBox="0 0 100 100" fill="none" xmlns="http://www.w3.org/2000/svg">
<path d="M92.1875 10.9375H7.8125C6.15556 10.9397 4.56711 11.5988 3.39548 12.7705C2.22385 13.9421 1.56467 15.5306 1.5625 17.1875V70.3125C1.56467 71.9694 2.22385 73.5579 3.39548 74.7295C4.56711 75.9012 6.15556 76.5603 7.8125 76.5625H40.0195L37.9355 82.8125H32.8125C32.3981 82.8125 32.0007 82.9771 31.7076 83.2701C31.4146 83.5632 31.25 83.9606 31.25 84.375V87.5H17.1875C16.7731 87.5 16.3757 87.6646 16.0826 87.9576C15.7896 88.2507 15.625 88.6481 15.625 89.0625C15.625 89.4769 15.7896 89.8743 16.0826 90.1674C16.3757 90.4604 16.7731 90.625 17.1875 90.625H85.9375C86.3519 90.625 86.7493 90.4604 87.0424 90.1674C87.3354 89.8743 87.5 89.4769 87.5 89.0625C87.5 88.6481 87.3354 88.2507 87.0424 87.9576C86.7493 87.6646 86.3519 87.5 85.9375 87.5H68.75V84.375C68.75 83.9606 68.5854 83.5632 68.2924 83.2701C67.9993 82.9771 67.6019 82.8125 67.1875 82.8125H62.0644L59.9805 76.5625H92.1875C93.8444 76.5603 95.4329 75.9012 96.6045 74.7295C97.7762 73.5579 98.4353 71.9694 98.4375 70.3125V17.1875C98.4353 15.5306 97.7762 13.9421 96.6045 12.7705C95.4329 11.5988 93.8444 10.9397 92.1875 10.9375ZM65.625 85.9375V87.5H34.375V85.9375H65.625ZM41.2305 82.8125L43.3145 76.5625H56.6856L58.7695 82.8125H41.2305ZM95.3125 70.3125C95.3114 71.141 94.9818 71.9352 94.396 72.521C93.8102 73.1068 93.016 73.4364 92.1875 73.4375H7.8125C6.98403 73.4364 6.18981 73.1068 5.60399 72.521C5.01817 71.9352 4.68859 71.141 4.6875 70.3125V67.1875H95.3125V70.3125ZM28.0586 50L27.4727 64.0625H25.6523L25.0664 50H28.0586ZM25.2812 46.875L26.3242 40.625H26.8008L27.8438 46.875H25.2812ZM26.5625 37.5C24.8691 37.5 23.4375 35.3535 23.4375 32.8125C23.4375 31.209 25.0742 28.8789 26.5586 27.2363C27.8965 28.7207 29.6875 31.0938 29.6875 32.8125C29.6875 35.3535 28.2559 37.5 26.5625 37.5ZM43.5664 34.375L43.75 34.7441V35.9375H37.5V34.7441L37.6836 34.375H43.5664ZM39.2461 31.25L40.625 28.4941L42.0039 31.25H39.2461ZM43.75 39.0625V63.8672C43.7506 63.9325 43.7552 63.9977 43.7637 64.0625H37.4863C37.4948 63.9977 37.4994 63.9325 37.5 63.8672V39.0625H43.75ZM57.8125 32.8125H62.5V35.9375H60.9375C60.5231 35.9375 60.1257 36.1021 59.8326 36.3951C59.5396 36.6882 59.375 37.0856 59.375 37.5C59.375 37.9144 59.5396 38.3118 59.8326 38.6049C60.1257 38.8979 60.5231 39.0625 60.9375 39.0625H62.5V42.1875H57.8125C57.3981 42.1875 57.0007 42.3521 56.7076 42.6451C56.4146 42.9382 56.25 43.3356 56.25 43.75C56.25 44.1644 56.4146 44.5618 56.7076 44.8549C57.0007 45.1479 57.3981 45.3125 57.8125 45.3125H62.5V48.4375H60.9375C60.5231 48.4375 60.1257 48.6021 59.8326 48.8951C59.5396 49.1882 59.375 49.5856 59.375 50C59.375 50.4144 59.5396 50.8118 59.8326 51.1049C60.1257 51.3979 60.5231 51.5625 60.9375 51.5625H62.5V54.6875H57.8125C57.3981 54.6875 57.0007 54.8521 56.7076 55.1451C56.4146 55.4382 56.25 55.8356 56.25 56.25C56.25 56.6644 56.4146 57.0618 56.7076 57.3549C57.0007 57.6479 57.3981 57.8125 57.8125 57.8125H62.5V64.0625H51.5625V26.5625H62.5V29.6875H57.8125C57.3981 29.6875 57.0007 29.8521 56.7076 30.1451C56.4146 30.4382 56.25 30.8356 56.25 31.25C56.25 31.6644 56.4146 32.0618 56.7076 32.3549C57.0007 32.6479 57.3981 32.8125 57.8125 32.8125ZM76.5625 51.5625V63.8672C76.5631 63.9325 76.5677 63.9977 76.5762 64.0625H70.2988C70.3073 63.9977 70.3119 63.9325 70.3125 63.8672V51.5625H76.5625ZM70.3125 48.4375V47.2441L73.4375 40.9941L76.5625 47.2441V48.4375H70.3125ZM95.3125 64.0625H79.6738C79.6823 63.9977 79.6869 63.9325 79.6875 63.8672V46.875C79.6873 46.6324 79.6311 46.3932 79.5234 46.1758L74.8359 36.8008C74.7059 36.5413 74.5062 36.3231 74.2592 36.1707C74.0123 36.0182 73.7277 35.9374 73.4375 35.9374C73.1473 35.9374 72.8627 36.0182 72.6158 36.1707C72.3688 36.3231 72.1691 36.5413 72.0391 36.8008L67.3516 46.1758C67.2439 46.3932 67.1877 46.6324 67.1875 46.875V63.8672C67.1881 63.9325 67.1927 63.9977 67.2012 64.0625H65.625V25C65.625 24.5856 65.4604 24.1882 65.1674 23.8951C64.8743 23.6021 64.4769 23.4375 64.0625 23.4375H50C49.5856 23.4375 49.1882 23.6021 48.8951 23.8951C48.6021 24.1882 48.4375 24.5856 48.4375 25V64.0625H46.8613C46.8698 63.9977 46.8744 63.9325 46.875 63.8672V34.375C46.8748 34.1324 46.8186 33.8931 46.7109 33.6758L42.0234 24.3008C41.8934 24.0413 41.6937 23.8231 41.4467 23.6707C41.1998 23.5182 40.9152 23.4374 40.625 23.4374C40.3348 23.4374 40.0502 23.5182 39.8033 23.6707C39.5563 23.8231 39.3566 24.0413 39.2266 24.3008L34.5391 33.6758C34.4314 33.8931 34.3752 34.1324 34.375 34.375V63.8672C34.3756 63.9325 34.3802 63.9977 34.3887 64.0625H30.5996L31.248 48.502C31.25 48.4668 31.248 48.4316 31.248 48.3945V48.3477C31.2444 48.2927 31.2379 48.2379 31.2285 48.1836V48.1797L29.7832 39.5059C31.5977 38.1367 32.8125 35.6484 32.8125 32.8125C32.8125 28.7969 28.1582 24.3496 27.627 23.8555C27.3374 23.5871 26.9573 23.438 26.5625 23.438C26.1677 23.438 25.7876 23.5871 25.498 23.8555C24.9668 24.3496 20.3125 28.7969 20.3125 32.8125C20.3125 35.6484 21.5273 38.1367 23.3418 39.5059L21.8965 48.1797V48.1836C21.8871 48.2379 21.8806 48.2927 21.877 48.3477V48.3945C21.877 48.4316 21.875 48.4668 21.877 48.502L22.5254 64.0625H4.6875V17.1875C4.68859 16.359 5.01817 15.5648 5.60399 14.979C6.18981 14.3932 6.98403 14.0636 7.8125 14.0625H92.1875C93.016 14.0636 93.8102 14.3932 94.396 14.979C94.9818 15.5648 95.3114 16.359 95.3125 17.1875V64.0625Z" fill="url(#paint0_linear)"/>
<path d="M18.75 68.75H9.375C8.9606 68.75 8.56317 68.9146 8.27015 69.2076C7.97712 69.5007 7.8125 69.8981 7.8125 70.3125C7.8125 70.7269 7.97712 71.1243 8.27015 71.4174C8.56317 71.7104 8.9606 71.875 9.375 71.875H18.75C19.1644 71.875 19.5618 71.7104 19.8549 71.4174C20.1479 71.1243 20.3125 70.7269 20.3125 70.3125C20.3125 69.8981 20.1479 69.5007 19.8549 69.2076C19.5618 68.9146 19.1644 68.75 18.75 68.75Z" fill="url(#paint1_linear)"/>
<path d="M25 68.75H23.4375C23.0231 68.75 22.6257 68.9146 22.3326 69.2076C22.0396 69.5007 21.875 69.8981 21.875 70.3125C21.875 70.7269 22.0396 71.1243 22.3326 71.4174C22.6257 71.7104 23.0231 71.875 23.4375 71.875H25C25.4144 71.875 25.8118 71.7104 26.1049 71.4174C26.3979 71.1243 26.5625 70.7269 26.5625 70.3125C26.5625 69.8981 26.3979 69.5007 26.1049 69.2076C25.8118 68.9146 25.4144 68.75 25 68.75Z" fill="url(#paint2_linear)"/>
<path d="M40.625 40.625C40.2106 40.625 39.8132 40.7896 39.5201 41.0826C39.2271 41.3757 39.0625 41.7731 39.0625 42.1875V59.375C39.0625 59.7894 39.2271 60.1868 39.5201 60.4799C39.8132 60.7729 40.2106 60.9375 40.625 60.9375C41.0394 60.9375 41.4368 60.7729 41.7299 60.4799C42.0229 60.1868 42.1875 59.7894 42.1875 59.375V42.1875C42.1875 41.7731 42.0229 41.3757 41.7299 41.0826C41.4368 40.7896 41.0394 40.625 40.625 40.625Z" fill="url(#paint3_linear)"/>
<path d="M73.4375 53.125C73.0231 53.125 72.6257 53.2896 72.3326 53.5826C72.0396 53.8757 71.875 54.2731 71.875 54.6875V59.375C71.875 59.7894 72.0396 60.1868 72.3326 60.4799C72.6257 60.7729 73.0231 60.9375 73.4375 60.9375C73.8519 60.9375 74.2493 60.7729 74.5424 60.4799C74.8354 60.1868 75 59.7894 75 59.375V54.6875C75 54.2731 74.8354 53.8757 74.5424 53.5826C74.2493 53.2896 73.8519 53.125 73.4375 53.125Z" fill="url(#paint4_linear)"/>
<path d="M9.375 20.3125H21.875C22.2894 20.3125 22.6868 20.1479 22.9799 19.8549C23.2729 19.5618 23.4375 19.1644 23.4375 18.75C23.4375 18.3356 23.2729 17.9382 22.9799 17.6451C22.6868 17.3521 22.2894 17.1875 21.875 17.1875H9.375C8.9606 17.1875 8.56317 17.3521 8.27015 17.6451C7.97712 17.9382 7.8125 18.3356 7.8125 18.75C7.8125 19.1644 7.97712 19.5618 8.27015 19.8549C8.56317 20.1479 8.9606 20.3125 9.375 20.3125Z" fill="url(#paint5_linear)"/>
<path d="M9.375 25H12.5C12.9144 25 13.3118 24.8354 13.6049 24.5424C13.8979 24.2493 14.0625 23.8519 14.0625 23.4375C14.0625 23.0231 13.8979 22.6257 13.6049 22.3326C13.3118 22.0396 12.9144 21.875 12.5 21.875H9.375C8.9606 21.875 8.56317 22.0396 8.27015 22.3326C7.97712 22.6257 7.8125 23.0231 7.8125 23.4375C7.8125 23.8519 7.97712 24.2493 8.27015 24.5424C8.56317 24.8354 8.9606 25 9.375 25Z" fill="url(#paint6_linear)"/>
<path d="M84.375 60.9375H90.625C91.0394 60.9375 91.4368 60.7729 91.7299 60.4799C92.0229 60.1868 92.1875 59.7894 92.1875 59.375C92.1875 58.9606 92.0229 58.5632 91.7299 58.2701C91.4368 57.9771 91.0394 57.8125 90.625 57.8125H84.375C83.9606 57.8125 83.5632 57.9771 83.2701 58.2701C82.9771 58.5632 82.8125 58.9606 82.8125 59.375C82.8125 59.7894 82.9771 60.1868 83.2701 60.4799C83.5632 60.7729 83.9606 60.9375 84.375 60.9375Z" fill="url(#paint7_linear)"/>
<path d="M89.0625 56.25H90.625C91.0394 56.25 91.4368 56.0854 91.7299 55.7924C92.0229 55.4993 92.1875 55.1019 92.1875 54.6875C92.1875 54.2731 92.0229 53.8757 91.7299 53.5826C91.4368 53.2896 91.0394 53.125 90.625 53.125H89.0625C88.6481 53.125 88.2507 53.2896 87.9576 53.5826C87.6646 53.8757 87.5 54.2731 87.5 54.6875C87.5 55.1019 87.6646 55.4993 87.9576 55.7924C88.2507 56.0854 88.6481 56.25 89.0625 56.25Z" fill="url(#paint8_linear)"/>
<defs>
<linearGradient id="paint0_linear" x1="50" y1="10.9375" x2="50" y2="90.625" gradientUnits="userSpaceOnUse">
<stop stop-color="#0DB1D5"/>
<stop offset="1" stop-color="#5D67C0"/>
</linearGradient>
<linearGradient id="paint1_linear" x1="14.0625" y1="68.75" x2="14.0625" y2="71.875" gradientUnits="userSpaceOnUse">
<stop stop-color="#0DB1D5"/>
<stop offset="1" stop-color="#5D67C0"/>
</linearGradient>
<linearGradient id="paint2_linear" x1="24.2188" y1="68.75" x2="24.2188" y2="71.875" gradientUnits="userSpaceOnUse">
<stop stop-color="#0DB1D5"/>
<stop offset="1" stop-color="#5D67C0"/>
</linearGradient>
<linearGradient id="paint3_linear" x1="40.625" y1="40.625" x2="40.625" y2="60.9375" gradientUnits="userSpaceOnUse">
<stop stop-color="#0DB1D5"/>
<stop offset="1" stop-color="#5D67C0"/>
</linearGradient>
<linearGradient id="paint4_linear" x1="73.4375" y1="53.125" x2="73.4375" y2="60.9375" gradientUnits="userSpaceOnUse">
<stop stop-color="#0DB1D5"/>
<stop offset="1" stop-color="#5D67C0"/>
</linearGradient>
<linearGradient id="paint5_linear" x1="15.625" y1="17.1875" x2="15.625" y2="20.3125" gradientUnits="userSpaceOnUse">
<stop stop-color="#0DB1D5"/>
<stop offset="1" stop-color="#5D67C0"/>
</linearGradient>
<linearGradient id="paint6_linear" x1="10.9375" y1="21.875" x2="10.9375" y2="25" gradientUnits="userSpaceOnUse">
<stop stop-color="#0DB1D5"/>
<stop offset="1" stop-color="#5D67C0"/>
</linearGradient>
<linearGradient id="paint7_linear" x1="87.5" y1="57.8125" x2="87.5" y2="60.9375" gradientUnits="userSpaceOnUse">
<stop stop-color="#0DB1D5"/>
<stop offset="1" stop-color="#5D67C0"/>
</linearGradient>
<linearGradient id="paint8_linear" x1="89.8438" y1="53.125" x2="89.8438" y2="56.25" gradientUnits="userSpaceOnUse">
<stop stop-color="#0DB1D5"/>
<stop offset="1" stop-color="#5D67C0"/>
</linearGradient>
</defs>
</svg>
