<svg width="100" height="100" viewBox="0 0 100 100" fill="none" xmlns="http://www.w3.org/2000/svg">
<path d="M44.9999 95.0001H54.9999C55.9203 95.0001 56.6666 94.2538 56.6666 93.3334C56.6666 92.413 55.9203 91.6667 54.9999 91.6667H44.9999C44.0795 91.6667 43.3333 92.413 43.3333 93.3334C43.3333 94.2538 44.0795 95.0001 44.9999 95.0001Z" fill="url(#paint0_linear)"/>
<path d="M41.6667 26.6667H25V43.3334H41.6667V26.6667ZM38.3333 40.0001H28.3333V30.0001H38.3333V40.0001Z" fill="url(#paint1_linear)"/>
<path d="M36.6667 31.6667H30V38.3334H36.6667V31.6667Z" fill="url(#paint2_linear)"/>
<path d="M25 73.3334H41.6667V56.6667H25V73.3334ZM28.3333 60.0001H38.3333V70.0001H28.3333V60.0001Z" fill="url(#paint3_linear)"/>
<path d="M36.6667 61.6667H30V68.3334H36.6667V61.6667Z" fill="url(#paint4_linear)"/>
<path d="M69.9999 61.6667H63.3333V68.3334H69.9999V61.6667Z" fill="url(#paint5_linear)"/>
<path d="M56.6666 70H43.3333V73.3333H56.6666V70Z" fill="url(#paint6_linear)"/>
<path d="M55.0001 63.3333H51.6667V68.3333H55.0001V63.3333Z" fill="url(#paint7_linear)"/>
<path d="M54.9999 58.3333H48.3333V61.6666H54.9999V58.3333Z" fill="url(#paint8_linear)"/>
<path d="M56.6667 40.0001H48.3333V38.3334H58.3333V26.6667H50V30.0001H55V35.0001H53.3333V31.6667H50V35.0001H48.3333V26.6667H45V43.3334H56.6667V40.0001Z" fill="url(#paint9_linear)"/>
<path d="M75 26.6667H60V30.0001H75V26.6667Z" fill="url(#paint10_linear)"/>
<path d="M68.3333 31.6667H65V36.6667H68.3333V31.6667Z" fill="url(#paint11_linear)"/>
<path d="M48.3333 65H43.3333V68.3333H48.3333V65Z" fill="url(#paint12_linear)"/>
<path d="M81.6667 48.3333V8.33333C81.6612 3.73333 77.9333 0.00541667 73.3333 0H26.6667C22.0667 0.00541667 18.3387 3.73333 18.3333 8.33333V48.3333H0V51.6667H18.3333V91.6667C18.3387 96.2667 22.0667 99.9946 26.6667 100H73.3333C77.9333 99.9946 81.6612 96.2667 81.6667 91.6667V51.6667H100V48.3333H81.6667ZM78.3333 91.6667C78.3333 94.4281 76.0948 96.6667 73.3333 96.6667H26.6667C23.9052 96.6667 21.6667 94.4281 21.6667 91.6667V90H78.3333V91.6667ZM78.3333 86.6667H21.6667V51.6667H25V55H28.3333V51.6667H33.3333V55H41.6667V51.6667H45V56.6667H43.3333V63.3333H46.6667V56.6667H51.6667V53.3333H48.3333V51.6667H60V53.3333H63.3333V51.6667H65V56.6667H58.3333V73.3333H75V56.6667H68.3333V51.6667H71.6667V55H75V51.6667H78.3333V86.6667ZM71.6667 60V70H61.6667V60H71.6667ZM78.3333 48.3333H75V31.6667H71.6667V48.3333H63.3333V46.6667H70V43.3333H68.3333V38.3333H65V43.3333H63.3333V40H60V48.3333H56.6667V45H53.3333V48.3333H48.3333V45H45V48.3333H40V45H36.6667V48.3333H33.3333V45H30V48.3333H28.3333V46.6667H25V48.3333H21.6667V13.3333H78.3333V48.3333ZM78.3333 10H21.6667V8.33333C21.6667 5.57187 23.9052 3.33333 26.6667 3.33333H73.3333C76.0948 3.33333 78.3333 5.57187 78.3333 8.33333V10Z" fill="url(#paint13_linear)"/>
<path d="M58.3333 53.3333H55V56.6666H58.3333V53.3333Z" fill="url(#paint14_linear)"/>
<path d="M63.3333 31.6667H60V35.0001H63.3333V31.6667Z" fill="url(#paint15_linear)"/>
<path d="M59.9999 5H49.9999C49.0795 5 48.3333 5.74625 48.3333 6.66667C48.3333 7.58708 49.0795 8.33333 49.9999 8.33333H59.9999C60.9203 8.33333 61.6666 7.58708 61.6666 6.66667C61.6666 5.74625 60.9203 5 59.9999 5Z" fill="url(#paint16_linear)"/>
<path d="M43.3333 5H39.9999C39.0795 5 38.3333 5.74625 38.3333 6.66667C38.3333 7.58708 39.0795 8.33333 39.9999 8.33333H43.3333C44.2537 8.33333 44.9999 7.58708 44.9999 6.66667C44.9999 5.74625 44.2537 5 43.3333 5Z" fill="url(#paint17_linear)"/>
<defs>
<linearGradient id="paint0_linear" x1="49.9999" y1="91.6667" x2="49.9999" y2="95.0001" gradientUnits="userSpaceOnUse">
<stop stop-color="#0CB1D4"/>
<stop offset="1" stop-color="#5D67C0"/>
</linearGradient>
<linearGradient id="paint1_linear" x1="33.3333" y1="26.6667" x2="33.3333" y2="43.3334" gradientUnits="userSpaceOnUse">
<stop stop-color="#0CB1D4"/>
<stop offset="1" stop-color="#5D67C0"/>
</linearGradient>
<linearGradient id="paint2_linear" x1="33.3333" y1="31.6667" x2="33.3333" y2="38.3334" gradientUnits="userSpaceOnUse">
<stop stop-color="#0CB1D4"/>
<stop offset="1" stop-color="#5D67C0"/>
</linearGradient>
<linearGradient id="paint3_linear" x1="33.3333" y1="56.6667" x2="33.3333" y2="73.3334" gradientUnits="userSpaceOnUse">
<stop stop-color="#0CB1D4"/>
<stop offset="1" stop-color="#5D67C0"/>
</linearGradient>
<linearGradient id="paint4_linear" x1="33.3333" y1="61.6667" x2="33.3333" y2="68.3334" gradientUnits="userSpaceOnUse">
<stop stop-color="#0CB1D4"/>
<stop offset="1" stop-color="#5D67C0"/>
</linearGradient>
<linearGradient id="paint5_linear" x1="66.6666" y1="61.6667" x2="66.6666" y2="68.3334" gradientUnits="userSpaceOnUse">
<stop stop-color="#0CB1D4"/>
<stop offset="1" stop-color="#5D67C0"/>
</linearGradient>
<linearGradient id="paint6_linear" x1="49.9999" y1="70" x2="49.9999" y2="73.3333" gradientUnits="userSpaceOnUse">
<stop stop-color="#0CB1D4"/>
<stop offset="1" stop-color="#5D67C0"/>
</linearGradient>
<linearGradient id="paint7_linear" x1="53.3334" y1="63.3333" x2="53.3334" y2="68.3333" gradientUnits="userSpaceOnUse">
<stop stop-color="#0CB1D4"/>
<stop offset="1" stop-color="#5D67C0"/>
</linearGradient>
<linearGradient id="paint8_linear" x1="51.6666" y1="58.3333" x2="51.6666" y2="61.6666" gradientUnits="userSpaceOnUse">
<stop stop-color="#0CB1D4"/>
<stop offset="1" stop-color="#5D67C0"/>
</linearGradient>
<linearGradient id="paint9_linear" x1="51.6667" y1="26.6667" x2="51.6667" y2="43.3334" gradientUnits="userSpaceOnUse">
<stop stop-color="#0CB1D4"/>
<stop offset="1" stop-color="#5D67C0"/>
</linearGradient>
<linearGradient id="paint10_linear" x1="67.5" y1="26.6667" x2="67.5" y2="30.0001" gradientUnits="userSpaceOnUse">
<stop stop-color="#0CB1D4"/>
<stop offset="1" stop-color="#5D67C0"/>
</linearGradient>
<linearGradient id="paint11_linear" x1="66.6667" y1="31.6667" x2="66.6667" y2="36.6667" gradientUnits="userSpaceOnUse">
<stop stop-color="#0CB1D4"/>
<stop offset="1" stop-color="#5D67C0"/>
</linearGradient>
<linearGradient id="paint12_linear" x1="45.8333" y1="65" x2="45.8333" y2="68.3333" gradientUnits="userSpaceOnUse">
<stop stop-color="#0CB1D4"/>
<stop offset="1" stop-color="#5D67C0"/>
</linearGradient>
<linearGradient id="paint13_linear" x1="50" y1="0" x2="50" y2="100" gradientUnits="userSpaceOnUse">
<stop stop-color="#0CB1D4"/>
<stop offset="1" stop-color="#5D67C0"/>
</linearGradient>
<linearGradient id="paint14_linear" x1="56.6667" y1="53.3333" x2="56.6667" y2="56.6666" gradientUnits="userSpaceOnUse">
<stop stop-color="#0CB1D4"/>
<stop offset="1" stop-color="#5D67C0"/>
</linearGradient>
<linearGradient id="paint15_linear" x1="61.6667" y1="31.6667" x2="61.6667" y2="35.0001" gradientUnits="userSpaceOnUse">
<stop stop-color="#0CB1D4"/>
<stop offset="1" stop-color="#5D67C0"/>
</linearGradient>
<linearGradient id="paint16_linear" x1="54.9999" y1="5" x2="54.9999" y2="8.33333" gradientUnits="userSpaceOnUse">
<stop stop-color="#0CB1D4"/>
<stop offset="1" stop-color="#5D67C0"/>
</linearGradient>
<linearGradient id="paint17_linear" x1="41.6666" y1="5" x2="41.6666" y2="8.33333" gradientUnits="userSpaceOnUse">
<stop stop-color="#0CB1D4"/>
<stop offset="1" stop-color="#5D67C0"/>
</linearGradient>
</defs>
</svg>
