<svg width="24" height="24" viewBox="0 0 24 24" fill="none" xmlns="http://www.w3.org/2000/svg">
<path d="M17.6125 15.4914C18.7935 13.8786 19.4999 11.8976 19.4999 9.75004C19.4999 4.37405 15.1259 0 9.74993 0C4.37398 0 0 4.37405 0 9.75004C0 15.126 4.37403 19.5001 9.74998 19.5001C11.8975 19.5001 13.8787 18.7936 15.4915 17.6125L21.8789 24L24 21.8789L17.6125 15.4914ZM9.74998 16.5C6.02781 16.5 3.00001 13.4722 3.00001 9.75004C3.00001 6.02785 6.02781 3.00003 9.74998 3.00003C13.4721 3.00003 16.4999 6.02785 16.4999 9.75004C16.4999 13.4722 13.4721 16.5 9.74998 16.5Z" fill="white"/>
</svg>
