<svg width="98" height="99" viewBox="0 0 98 99" fill="none" xmlns="http://www.w3.org/2000/svg">
<path d="M78.2297 19.7703L77.125 18.6656L76.0203 19.7703C74.6 21.1906 73 22.3641 71.275 23.2781C71.6781 19.15 70.2703 15.0266 67.2469 12.0031C63.3047 8.06094 57.5234 6.85156 52.4094 8.76094C50.1437 3.79375 45.2016 0.5625 39.625 0.5625C34.0484 0.5625 29.1063 3.79375 26.8406 8.76094C21.7281 6.85 15.9484 8.05937 12.0031 12.0031C8.06094 15.9453 6.85156 21.7266 8.76094 26.8406C3.79375 29.1063 0.5625 34.0484 0.5625 39.625C0.5625 45.2016 3.79375 50.1437 8.76094 52.4094C6.85156 57.5234 8.06094 63.3047 12.0031 67.2469C14.7031 69.9469 18.2656 71.3312 21.8844 71.3438L15.5125 91.5234L28.1359 89.7203L37.2313 98.8156L39.625 91.0312L42.0203 98.8156L51.1156 89.7203L63.7391 91.5234L57.3656 71.3422C60.9844 71.3297 64.5469 69.9469 67.2469 67.2469C69.0391 65.4547 70.3 63.2172 70.9219 60.7891C72.7406 61.7391 74.6844 62.5 76.7469 63.0141L77.125 63.1094L77.5047 63.0141C89.2406 60.0828 97.4375 49.5844 97.4375 37.4859V25.5625H92.2141C86.9313 25.5625 81.9656 23.5063 78.2297 19.7703ZM35.7703 92.9344L30.475 87.6406L33.2953 79.1813L30.3312 78.1922L27.5109 86.6516L19.9875 87.7266L25.2875 70.9453C25.8094 70.8156 26.3297 70.6797 26.8406 70.4891C28.5484 74.2328 31.7781 76.9859 35.6516 78.1172L37.9906 85.7188L35.7703 92.9344ZM51.7391 86.6531L48.9188 78.1937L45.9547 79.1828L48.775 87.6422L43.4797 92.9359L39.0828 78.65C39.2656 78.6547 39.4422 78.6875 39.625 78.6875C45.2016 78.6875 50.1437 75.4562 52.4094 70.4891C52.9203 70.6797 53.4406 70.8156 53.9625 70.9453L59.2625 87.7266L51.7391 86.6531ZM65.0375 65.0375C61.6484 68.425 56.5156 69.2219 52.2641 67.0109L50.6141 66.1547L50.0531 67.9266C48.6094 72.4938 44.4172 75.5625 39.625 75.5625C34.8328 75.5625 30.6406 72.4938 29.1969 67.925L28.6359 66.1531L26.9859 67.0094C22.7344 69.2219 17.6016 68.4234 14.2125 65.0359C10.8234 61.6469 10.0312 56.5125 12.2391 52.2609L13.0969 50.6109L11.3234 50.05C6.75625 48.6094 3.6875 44.4188 3.6875 39.625C3.6875 34.8328 6.75625 30.6406 11.3234 29.1969L13.0969 28.6359L12.2391 26.9859C10.0312 22.7344 10.825 17.6016 14.2125 14.2125C17.6016 10.825 22.7375 10.0344 26.9859 12.2391L28.6359 13.0969L29.1969 11.3234C30.6406 6.75625 34.8328 3.6875 39.625 3.6875C44.4172 3.6875 48.6094 6.75625 50.0531 11.3234L50.6141 13.0969L52.2641 12.2391C56.5156 10.0312 61.6484 10.8234 65.0375 14.2125C67.8063 16.9828 68.8406 20.9375 67.8641 24.6906C66.0344 25.2516 64.1109 25.5469 62.1437 25.5562C57.3047 17.8328 48.7687 13.0625 39.625 13.0625C24.9781 13.0625 13.0625 24.9781 13.0625 39.625C13.0625 54.2719 24.9781 66.1875 39.625 66.1875C48.9969 66.1875 57.4453 61.3875 62.2563 53.5172C63.8844 55.6375 65.8422 57.4969 68.0578 59.0438C67.6922 61.3 66.6656 63.4078 65.0375 65.0375ZM30.6438 32.8359C30.3875 32.0484 30.25 31.2234 30.25 30.3797C30.25 26 33.8125 22.4375 38.1922 22.4375H41.0594C45.4375 22.4375 49 26 49 30.3797C49 31.175 48.8781 31.9547 48.65 32.7C48.0547 31.2266 46.7391 30.1125 45.0828 29.8375L42.0312 29.3281C40.3141 29.0422 38.9062 27.8375 38.3547 26.1875L37.9828 25.0703L35.0187 26.0578L35.3906 27.1766C35.5422 27.6313 35.7328 28.0641 35.9578 28.4734L34.1797 29.1859C32.4906 29.8578 31.2391 31.2016 30.6438 32.8359ZM33.375 34.9859C33.375 33.7 34.1469 32.5609 35.3391 32.0844L38.1281 30.9687C39.1078 31.6984 40.2625 32.2016 41.5156 32.4094L44.5672 32.9188C45.325 33.0453 45.875 33.6937 45.875 34.4594V36.4969C45.875 39.9437 43.0719 42.7484 39.625 42.75C36.1781 42.7484 33.375 39.9437 33.375 36.4969V34.9859ZM44.6828 49.0687L46.0797 49.2688L44.0031 52.7313L42.0781 50.8062L44.6828 49.0687ZM39.6219 45.875H39.6281C40.4609 45.875 41.2656 45.7547 42.0359 45.5484L42.4531 46.8L39.625 48.6844L36.7969 46.7984L37.2141 45.5469C37.9844 45.7547 38.7891 45.875 39.6219 45.875ZM34.5672 49.0687L37.1719 50.8062L35.2469 52.7313L33.1703 49.2688L34.5672 49.0687ZM29.8703 49.8406L34.6266 57.7703L39.625 52.7719L44.6234 57.7703L49.3797 49.8406C51.8969 50.6703 53.6875 53.0547 53.6875 55.7766V58.3984C49.7203 61.3766 44.8359 63.0625 39.625 63.0625C34.3453 63.0625 29.4844 61.2875 25.5625 58.3312V55.7766C25.5625 53.0547 27.3531 50.6703 29.8703 49.8406ZM56.7953 55.5953C56.7047 51.0391 53.2906 47.1422 48.7625 46.4953L45.4891 46.0281L44.8953 44.2469C46.7781 42.9625 48.1609 41.0062 48.7203 38.7313L50.125 36.7266C51.4328 34.8563 52.125 32.6625 52.125 30.3797C52.125 24.2766 47.1609 19.3125 41.0578 19.3125H38.1906C32.0891 19.3125 27.125 24.2766 27.125 30.3797C27.125 32.6625 27.8172 34.8563 29.1266 36.7266L30.5297 38.7313C31.0891 41.0078 32.4719 42.9625 34.3547 44.2469L33.7609 46.0281L30.4875 46.4953C25.9813 47.1391 22.5828 51.0031 22.4609 55.5312C18.5813 51.3469 16.1875 45.7672 16.1875 39.625C16.1875 26.7016 26.7016 16.1875 39.625 16.1875C47.0203 16.1875 53.9688 19.7234 58.3656 25.5625H56.8125V37.4859C56.8125 42.2266 58.0859 46.7125 60.3219 50.6031C59.3469 52.4422 58.1625 54.1156 56.7953 55.5953ZM94.3125 37.4859C94.3125 48.0172 87.2641 57.1734 77.125 59.8859C66.9859 57.1734 59.9375 48.0172 59.9375 37.4859V28.6875H62.0359C67.6453 28.6875 72.9469 26.6844 77.125 23.0156C81.3016 26.6844 86.6031 28.6875 92.2141 28.6875H94.3125V37.4859ZM88.5203 32.2703L90.7297 34.4797L74 51.2094L66.6453 43.8547L68.8547 41.6453L74 46.7906L88.5203 32.2703Z" fill="url(#paint0_linear)"/>
<defs>
<linearGradient id="paint0_linear" x1="49" y1="98.8156" x2="49" y2="0.5625" gradientUnits="userSpaceOnUse">
<stop stop-color="#5D67C0"/>
<stop offset="1" stop-color="#0BB1D3"/>
</linearGradient>
</defs>
</svg>
